<svg width="126" height="135" viewBox="0 0 126 135" fill="none" xmlns="http://www.w3.org/2000/svg">
<g filter="url(#filter0_d_50_536)">
<path d="M121.966 72.8824C121.966 73.6194 121.741 74.3386 121.321 74.9459C120.902 75.5523 120.308 76.0169 119.617 76.2788L113.574 78.5854V105.647C115.166 106.347 116.52 107.494 117.47 108.949C118.42 110.403 118.926 112.101 118.926 113.837V122.645C118.926 123.609 118.542 124.533 117.86 125.214C117.177 125.895 116.251 126.278 115.286 126.278H104.601C103.636 126.278 102.71 125.895 102.027 125.214C101.344 124.533 100.961 123.609 100.961 122.645V113.837C100.958 112.105 101.461 110.41 102.409 108.959C103.355 107.507 104.706 106.363 106.294 105.665V81.3658L98.5578 84.3081L91.2771 87.0867L71.6379 94.5872C67.4531 96.1828 62.8263 96.1828 58.6414 94.5872L39.0022 87.0867L31.7214 84.3081L10.6615 76.2806C9.73512 75.9296 8.99162 75.2177 8.6032 74.308C8.21479 73.3983 8.21479 72.3703 8.6032 71.4605C8.99162 70.5508 9.73512 69.839 10.6615 69.4879L58.6414 51.1816C62.8261 49.586 67.4529 49.586 71.6379 51.1816L119.618 69.4879C120.308 69.7498 120.902 70.2144 121.322 70.8209C121.742 71.4281 121.966 72.1473 121.966 72.8843L121.966 72.8824ZM71.6373 101.849C67.4525 103.445 62.8257 103.445 58.6408 101.849L39.0016 94.3486L31.7209 91.5701V106.752C31.7176 107.392 31.885 108.022 32.2043 108.577C32.5245 109.132 32.9852 109.593 33.541 109.913C43.3066 114.966 54.1376 117.631 65.1393 117.686C76.1393 117.636 86.9711 114.979 96.7377 109.931C97.2935 109.61 97.7542 109.15 98.0743 108.595C98.3937 108.04 98.5611 107.411 98.5578 106.77V91.5701L91.2771 94.3486L71.6373 101.849Z" fill="white"/>
</g>
<path d="M69.5277 13.5419C57.7596 8.62225 44.7424 8.5505 32.8479 13.4041C20.9535 18.2578 11.7029 27.4159 6.73625 39.1646C5.58693 41.8833 6.82362 44.914 9.5469 46.0524C10.9085 46.6217 12.3504 46.596 13.5949 46.0882C14.8394 45.5803 15.8876 44.5899 16.4623 43.2306C20.2921 34.0343 27.5442 26.8968 36.8108 23.1155C46.0773 19.3342 56.2523 19.3604 65.4228 23.2511C68.1461 24.3896 71.1888 23.1479 72.3381 20.4292C73.488 17.7103 72.2232 14.6109 69.5275 13.5414L69.5277 13.5419Z" fill="white"/>
<path d="M25.0491 46.8772C23.8998 49.5959 25.1365 52.6265 27.8598 53.765C29.2214 54.3342 30.6633 54.3086 31.9078 53.8007C33.1523 53.2929 34.2005 52.3025 34.7751 50.9431C38.5515 42.0102 48.8553 37.8056 57.7061 41.5057C60.3603 42.6724 63.4721 41.4026 64.6214 38.6839C65.7708 35.9651 64.5341 32.9345 61.8108 31.796C47.5416 25.8877 31.083 32.6038 25.0491 46.8772Z" fill="white"/>
<defs>
<filter id="filter0_d_50_536" x="4.31189" y="49.9849" width="121.654" height="84.2928" filterUnits="userSpaceOnUse" color-interpolation-filters="sRGB">
<feFlood flood-opacity="0" result="BackgroundImageFix"/>
<feColorMatrix in="SourceAlpha" type="matrix" values="0 0 0 0 0 0 0 0 0 0 0 0 0 0 0 0 0 0 127 0" result="hardAlpha"/>
<feOffset dy="4"/>
<feGaussianBlur stdDeviation="2"/>
<feComposite in2="hardAlpha" operator="out"/>
<feColorMatrix type="matrix" values="0 0 0 0 0 0 0 0 0 0 0 0 0 0 0 0 0 0 0.25 0"/>
<feBlend mode="normal" in2="BackgroundImageFix" result="effect1_dropShadow_50_536"/>
<feBlend mode="normal" in="SourceGraphic" in2="effect1_dropShadow_50_536" result="shape"/>
</filter>
</defs>
</svg>
