<svg width="12" height="15" viewBox="0 0 12 15" fill="none" xmlns="http://www.w3.org/2000/svg">
<path fill-rule="evenodd" clip-rule="evenodd" d="M1.27556 6.00862H10.7244C11.4331 6.00862 12 6.51996 12 7.11656V13.8921C12 14.4887 11.4331 15 10.7244 15H1.27556C0.566909 15 0 14.4887 0 13.8921V7.11656C0 6.51996 0.566909 6.00862 1.27556 6.00862ZM6 9.11953C6.56691 9.11953 6.99216 9.503 6.99216 10.0144C6.99216 10.3554 6.75598 10.6962 6.37792 10.8241V11.5486C6.37792 11.719 6.23617 11.8895 5.99997 11.8895C5.76377 11.8895 5.62202 11.719 5.62202 11.5486V10.8241C5.24407 10.6962 5.00778 10.3554 5.00778 10.0144C5.00778 9.50311 5.43291 9.11953 5.99994 9.11953H6Z" fill="#33455F"/>
<path d="M4.25202 0H7.74821C8.45686 0 9.11832 0.255722 9.59079 0.681782C10.0633 1.10795 10.3467 1.70457 10.3467 2.30107V5.62493H9.11832V2.30107C9.11832 1.96017 8.97657 1.66188 8.74037 1.44885C8.50419 1.23582 8.12613 1.06538 7.74821 1.06538H4.25202C3.87407 1.06538 3.49615 1.23583 3.25986 1.44885C3.02368 1.66188 2.88191 1.96019 2.88191 2.30107V5.62493H1.65356V2.30107C1.65356 1.70447 1.93708 1.10784 2.40943 0.681782C2.88191 0.255618 3.54337 0 4.25202 0Z" fill="#33455F"/>
</svg>
